<svg id="visual" viewBox="0 0 1920 1080" width="1920" height="1080" xmlns="http://www.w3.org/2000/svg" xmlns:xlink="http://www.w3.org/1999/xlink" version="1.1"><rect x="0" y="0" width="1920" height="1080" fill="#001220"></rect><path d="M0 500L45.7 489.3C91.3 478.7 182.7 457.3 274.2 445.3C365.7 433.3 457.3 430.7 548.8 401.7C640.3 372.7 731.7 317.3 823 311.2C914.3 305 1005.7 348 1097 336.8C1188.3 325.7 1279.7 260.3 1371.2 229.3C1462.7 198.3 1554.3 201.7 1645.8 226.8C1737.3 252 1828.7 299 1874.3 322.5L1920 346L1920 1081L1874.3 1081C1828.7 1081 1737.3 1081 1645.8 1081C1554.3 1081 1462.7 1081 1371.2 1081C1279.7 1081 1188.3 1081 1097 1081C1005.7 1081 914.3 1081 823 1081C731.7 1081 640.3 1081 548.8 1081C457.3 1081 365.7 1081 274.2 1081C182.7 1081 91.3 1081 45.7 1081L0 1081Z" fill="#155621"></path><path d="M0 378L45.7 401.2C91.3 424.3 182.7 470.7 274.2 502.5C365.7 534.3 457.3 551.7 548.8 528C640.3 504.3 731.7 439.7 823 404.5C914.3 369.3 1005.7 363.7 1097 372C1188.3 380.3 1279.7 402.7 1371.2 428.8C1462.7 455 1554.3 485 1645.8 493.5C1737.3 502 1828.7 489 1874.3 482.5L1920 476L1920 1081L1874.3 1081C1828.7 1081 1737.3 1081 1645.8 1081C1554.3 1081 1462.7 1081 1371.2 1081C1279.7 1081 1188.3 1081 1097 1081C1005.7 1081 914.3 1081 823 1081C731.7 1081 640.3 1081 548.8 1081C457.3 1081 365.7 1081 274.2 1081C182.7 1081 91.3 1081 45.7 1081L0 1081Z" fill="#18722b"></path><path d="M0 644L45.7 650.2C91.3 656.3 182.7 668.7 274.2 687C365.7 705.3 457.3 729.7 548.8 722.5C640.3 715.3 731.7 676.7 823 634.5C914.3 592.3 1005.7 546.7 1097 557.3C1188.3 568 1279.7 635 1371.2 651.5C1462.7 668 1554.3 634 1645.8 633.8C1737.3 633.7 1828.7 667.3 1874.3 684.2L1920 701L1920 1081L1874.3 1081C1828.7 1081 1737.3 1081 1645.8 1081C1554.3 1081 1462.7 1081 1371.2 1081C1279.7 1081 1188.3 1081 1097 1081C1005.7 1081 914.3 1081 823 1081C731.7 1081 640.3 1081 548.8 1081C457.3 1081 365.7 1081 274.2 1081C182.7 1081 91.3 1081 45.7 1081L0 1081Z" fill="#1b8f35"></path><path d="M0 707L45.7 726.5C91.3 746 182.7 785 274.2 796.8C365.7 808.7 457.3 793.3 548.8 789.5C640.3 785.7 731.7 793.3 823 796.8C914.3 800.3 1005.7 799.7 1097 790.5C1188.3 781.3 1279.7 763.7 1371.2 756.5C1462.7 749.3 1554.3 752.7 1645.8 765.2C1737.3 777.7 1828.7 799.3 1874.3 810.2L1920 821L1920 1081L1874.3 1081C1828.7 1081 1737.3 1081 1645.8 1081C1554.3 1081 1462.7 1081 1371.2 1081C1279.7 1081 1188.3 1081 1097 1081C1005.7 1081 914.3 1081 823 1081C731.7 1081 640.3 1081 548.8 1081C457.3 1081 365.7 1081 274.2 1081C182.7 1081 91.3 1081 45.7 1081L0 1081Z" fill="#1dad3f"></path><path d="M0 847L45.7 857C91.3 867 182.7 887 274.2 888.8C365.7 890.7 457.3 874.3 548.8 876.7C640.3 879 731.7 900 823 894.8C914.3 889.7 1005.7 858.3 1097 849C1188.3 839.7 1279.7 852.3 1371.2 876.2C1462.7 900 1554.3 935 1645.8 939.2C1737.3 943.3 1828.7 916.7 1874.3 903.3L1920 890L1920 1081L1874.3 1081C1828.7 1081 1737.3 1081 1645.8 1081C1554.3 1081 1462.7 1081 1371.2 1081C1279.7 1081 1188.3 1081 1097 1081C1005.7 1081 914.3 1081 823 1081C731.7 1081 640.3 1081 548.8 1081C457.3 1081 365.7 1081 274.2 1081C182.7 1081 91.3 1081 45.7 1081L0 1081Z" fill="#1fcd49"></path></svg>