<svg id="visual" viewBox="0 0 1920 1080" width="1920" height="1080" xmlns="http://www.w3.org/2000/svg" xmlns:xlink="http://www.w3.org/1999/xlink" version="1.1"><rect x="0" y="0" width="1920" height="1080" fill="#171717"></rect><path d="M0 454L148 408L295 470L443 456L591 512L738 546L886 539L1034 519L1182 426L1329 415L1477 422L1625 508L1772 413L1920 553L1920 1081L1772 1081L1625 1081L1477 1081L1329 1081L1182 1081L1034 1081L886 1081L738 1081L591 1081L443 1081L295 1081L148 1081L0 1081Z" fill="#16c526"></path><path d="M0 611L148 501L295 504L443 555L591 576L738 505L886 504L1034 534L1182 580L1329 509L1477 531L1625 528L1772 572L1920 565L1920 1081L1772 1081L1625 1081L1477 1081L1329 1081L1182 1081L1034 1081L886 1081L738 1081L591 1081L443 1081L295 1081L148 1081L0 1081Z" fill="#10b527"></path><path d="M0 586L148 629L295 562L443 678L591 566L738 565L886 590L1034 641L1182 625L1329 638L1477 635L1625 658L1772 676L1920 651L1920 1081L1772 1081L1625 1081L1477 1081L1329 1081L1182 1081L1034 1081L886 1081L738 1081L591 1081L443 1081L295 1081L148 1081L0 1081Z" fill="#0ba626"></path><path d="M0 703L148 737L295 640L443 700L591 675L738 684L886 656L1034 741L1182 748L1329 740L1477 669L1625 660L1772 694L1920 738L1920 1081L1772 1081L1625 1081L1477 1081L1329 1081L1182 1081L1034 1081L886 1081L738 1081L591 1081L443 1081L295 1081L148 1081L0 1081Z" fill="#089726"></path><path d="M0 795L148 753L295 816L443 798L591 783L738 753L886 791L1034 763L1182 788L1329 777L1477 756L1625 804L1772 762L1920 785L1920 1081L1772 1081L1625 1081L1477 1081L1329 1081L1182 1081L1034 1081L886 1081L738 1081L591 1081L443 1081L295 1081L148 1081L0 1081Z" fill="#078824"></path><path d="M0 807L148 800L295 867L443 864L591 822L738 867L886 796L1034 824L1182 822L1329 808L1477 810L1625 874L1772 857L1920 881L1920 1081L1772 1081L1625 1081L1477 1081L1329 1081L1182 1081L1034 1081L886 1081L738 1081L591 1081L443 1081L295 1081L148 1081L0 1081Z" fill="#077923"></path><path d="M0 907L148 929L295 942L443 901L591 891L738 939L886 876L1034 915L1182 938L1329 880L1477 879L1625 907L1772 882L1920 877L1920 1081L1772 1081L1625 1081L1477 1081L1329 1081L1182 1081L1034 1081L886 1081L738 1081L591 1081L443 1081L295 1081L148 1081L0 1081Z" fill="#096a21"></path><path d="M0 973L148 1010L295 998L443 1008L591 992L738 987L886 962L1034 990L1182 974L1329 972L1477 963L1625 964L1772 956L1920 982L1920 1081L1772 1081L1625 1081L1477 1081L1329 1081L1182 1081L1034 1081L886 1081L738 1081L591 1081L443 1081L295 1081L148 1081L0 1081Z" fill="#0a5c1e"></path></svg>